<svg xmlns="http://www.w3.org/2000/svg" viewBox="0 0 64 64" fill="none">
  <defs>
    <radialGradient id="ball" cx="0.35" cy="0.35" r="0.85">
      <stop offset="0%" stop-color="#ffffff" />
      <stop offset="55%" stop-color="#f3f4f6" />
      <stop offset="100%" stop-color="#cbd5e1" />
    </radialGradient>
    <linearGradient id="shine" x1="0" y1="0" x2="0" y2="1">
      <stop offset="0%" stop-color="#ffffff" stop-opacity="0.9" />
      <stop offset="100%" stop-color="#ffffff" stop-opacity="0" />
    </linearGradient>
    <linearGradient id="pitchBg" x1="0" y1="0" x2="1" y2="1">
      <stop offset="0%" stop-color="#16a34a" />
      <stop offset="100%" stop-color="#14532d" />
    </linearGradient>
  </defs>
  <rect x="2" y="2" width="60" height="60" rx="14" fill="url(#pitchBg)" />
  <g opacity="0.18">
    <path d="M2 32 H62" stroke="#fff" stroke-width="1" />
    <circle cx="32" cy="32" r="14" stroke="#fff" stroke-width="1" fill="none" />
    <rect x="2" y="22" width="8" height="20" stroke="#fff" stroke-width="1" fill="none" />
    <rect x="54" y="22" width="8" height="20" stroke="#fff" stroke-width="1" fill="none" />
  </g>
  <circle cx="32" cy="32" r="22" fill="url(#ball)" stroke="#0f172a" stroke-width="1.4" />
  <g stroke="#0f172a" stroke-width="1.6" stroke-linejoin="round" stroke-linecap="round" fill="none">
    <polygon points="32,18 39,24 36.5,32 27.5,32 25,24" fill="#0f172a" />
    <line x1="32" y1="18" x2="32" y2="11" />
    <line x1="36.5" y1="32" x2="46" y2="36" />
    <line x1="27.5" y1="32" x2="18" y2="36" />
    <line x1="25" y1="24" x2="16" y2="22" />
    <line x1="39" y1="24" x2="48" y2="22" />
  </g>
  <g stroke="#0f172a" stroke-width="1" fill="none" opacity="0.9">
    <path d="M14 28 Q20 33 14 38" />
    <path d="M50 28 Q44 33 50 38" />
    <path d="M22 44 Q27 42 32 44 Q37 42 42 44" />
  </g>
  <ellipse cx="24" cy="22" rx="9" ry="5" fill="url(#shine)" opacity="0.55" />
</svg>
